<svg version="1.1" xmlns="http://www.w3.org/2000/svg" xmlns:xlink="http://www.w3.org/1999/xlink" viewBox="-479.5 280.5 876 249">
<path fill="violet" d="M198.64 520.982c.669-1.097 1.21-3.023 2.028-3.149 4.929-.762 7.316-4.129 9.057-8.188a11508.863 11508.863 0 0 0 22.227-52.155c18.342-43.374 36.678-86.751 54.925-130.165 2.298-5.467 4.012-11.179 6.074-16.748.415-1.119 1.185-2.107 1.791-3.155.854.917 2.055 1.688 2.512 2.773 6.982 16.573 13.812 33.21 20.787 49.786 22.225 52.814 44.499 105.61 66.743 158.419.354.836.593 1.72.885 2.582h-48.59c.946-1.07 1.749-2.881 2.859-3.095 11.366-2.193 15.156-8.539 11.128-19.471-5.747-15.592-11.704-31.104-17.419-46.709-.923-2.521-2.051-3.584-4.858-3.57-24.436.104-48.871.099-73.308.007-2.69-.011-4.041.797-5.033 3.39-5.991 15.661-12.255 31.22-18.264 46.876-4.104 10.695-.124 17.532 11.166 19.293 2.41.376 2.872 1.24 2.047 3.279H198.64zm94.26-177.618c-12.761 32.559-25.057 63.933-37.498 95.683h73.433L292.9 343.364zM126.212 520.982c.054-1.048.107-2.097.188-3.641 1.738 0 3.392.078 5.032-.013 8.958-.491 16.538-7.383 17.798-16.256.299-2.105.348-4.26.348-6.393.019-53.767.018-107.529.013-161.295-.002-14.828-6.097-21.555-20.702-23.06-1.02-.104-1.954-1.018-2.928-1.554l.499-1.136h66.195c.15.374.304.748.456 1.122-1.026.542-2.013 1.454-3.084 1.569-14.385 1.537-20.617 8.347-20.618 22.705-.001 54.07-.002 108.14.001 162.21.001 13.938 6.752 21.279 20.568 22.075 3.052.177 3.393 1.281 2.243 3.664-22.002.003-44.005.003-66.009.003zM-271.496 451.135c.208 2.525.594 5.052.593 7.577-.006 14.819-.179 29.64-.101 44.457.014 2.784-1.411 3.614-3.55 4.479-15.722 6.358-32.141 9.605-48.953 11.111-22.027 1.976-43.994 2.339-65.432-4.229-38.3-11.732-66.291-34.961-77.194-74.46-17.102-61.956 12.724-134.607 95.73-147.258 29.777-4.538 59.437-2.382 88.315 6.891 9.576 3.075 9.429 3.241 9.581 13.03.187 12.066.562 24.132.827 36.198.063 2.864.01 5.731-.616 8.628-.636-4.509-1.274-9.018-1.907-13.526-3.315-23.59-17.247-37.997-39.621-44.126-26.978-7.392-53.678-6.505-78.857 6.778-23.638 12.47-37.41 32.934-43.304 58.528-8.267 35.896-5.564 70.987 12.271 103.641 18.194 33.311 47.328 48.055 85.047 46.126 11.192-.572 22.152-2.364 32.58-6.734 17.769-7.449 28.461-20.53 31.556-39.625.928-5.723 1.624-11.482 2.426-17.227l.609-.259zM-14.586 307.367h4.497c24.905 0 49.812-.152 74.717.105 6.356.064 12.864.766 19.019 2.308 23.861 5.977 37.429 24.069 38.776 50.91 1.468 29.203-12.111 47.674-41.064 55.669-13.194 3.645-26.709 4.854-40.356 4.812-.681-.002-1.361-.235-2.093-1.384 2.409-.163 4.82-.303 7.229-.489 17.771-1.381 33.211-7.453 44.693-21.812 16.103-20.137 12.469-49.194 2.976-64.811-5.689-9.358-14.254-15.083-25.037-15.708-13.354-.773-26.792-.185-40.685-.185v5.036c0 57.299-.002 114.599.001 171.897.001 13.863 6.413 20.783 20.199 21.974.97.084 1.874.938 2.809 1.434-1.009.581-2.017 1.664-3.028 1.669-20.017.101-40.031.101-60.049-.003-.979-.005-1.951-1.131-2.928-1.734.945-.474 1.863-1.289 2.84-1.366 13.759-1.083 20.285-8.045 20.288-21.878.014-54.243.014-108.487-.001-162.73-.004-12.378-7.218-19.96-19.562-20.794-1.272-.086-2.509-.718-3.762-1.098.172-.607.346-1.214.521-1.822zM-230.55 356.402c.708-2.116.78-3.395 1.446-4.151 5.224-5.94 10.574-11.771 15.857-17.661 1.447-1.611 2.48-3.854 4.242-4.882 19.435-11.335 38.769-23.002 61.961-25.084 6.328-.567 12.645-1.351 18.985-1.646 1.783-.083 3.629 1.209 5.56 1.913l-11.104 104.356-.937.21c-.432-1.486-1.093-2.948-1.259-4.463-1.288-11.809-2.25-23.656-3.755-35.436-2.356-18.439-5.037-36.837-7.636-55.246-.427-3.032-5.336-4.995-9.839-3.079-13.448 5.719-27.307 10.749-38.919 20.036-21.38 17.1-32.574 40.049-36.955 66.464-2.053 12.378.205 24.833 1.777 37.252 2.075 16.375 9.519 30.527 18.297 43.721 5.179 7.784 12.46 14.634 21.418 19.063 6.23 3.082 12.053 6.988 17.974 10.477-25.66-2.675-61.594-27.075-72.418-72.532-8.234-34.58 3.884-72.451 15.305-79.312zm177.361 113.857c-1.953 2.06-3.369 4.629-5.329 6.68-7.919 8.287-15.659 17.043-26.37 21.688-11.488 4.983-22.071 12.977-36.163 11.829l-12.364-97.491-1.193.037c-.211.811-.526 1.607-.617 2.431-.759 6.827-1.331 13.681-2.243 20.486-1.188 8.859-2.975 17.649-3.888 26.533-1.209 11.768-1.896 23.594-2.659 35.404-.342 5.29-.195 10.608-.521 15.898-.2 3.249 1.239 4.505 4.233 4.393 6.156-.233 12.37-.063 18.455-.864 30.945-4.081 56.803-18.044 77.327-41.439 6.174-7.036 11.021-15.235 16.414-22.814l1.438 1.95c.473-3.949.259-7.496 1.37-10.563 6.554-18.089 6.938-36.46 3.012-55.054-6.476-30.668-22.466-54.369-50.953-68.731-1.951-.982-4.156-1.574-6.312-1.981-.899-.17-1.98.621-3.165 1.042 6.793 5.182 13.483 9.125 18.711 14.493 15.014 15.41 24.012 34.001 26.82 55.455.375 2.876 1.007 5.732 1.178 8.618.476 8.008 2.661 15.954.86 24.05-2.749 12.367-5.571 24.69-11.388 36.116-1.585 3.114-2.391 6.626-3.78 10.604-.471.182-2.042.356-2.873 1.23zM-93.677 313.229l11.429 3.205c-2.284 3.463-6.683 2.357-11.429-3.205z"/>
</svg>
