<svg version="1.1" xmlns="http://www.w3.org/2000/svg" xmlns:xlink="http://www.w3.org/1999/xlink">
<symbol viewBox="-479.5 280.5 876 249" id="icon-logo">
    <title>
        Copia heavy metal band from Melbourne, Australia
    </title>
    <path d="M198.64 520.982c.669-1.097 1.21-3.023 2.028-3.149 4.929-.762 7.316-4.129 9.057-8.188a11508.863 11508.863 0 0 0 22.227-52.155c18.342-43.374 36.678-86.751 54.925-130.165 2.298-5.467 4.012-11.179 6.074-16.748.415-1.119 1.185-2.107 1.791-3.155.854.917 2.055 1.688 2.512 2.773 6.982 16.573 13.812 33.21 20.787 49.786 22.225 52.814 44.499 105.61 66.743 158.419.354.836.593 1.72.885 2.582h-48.59c.946-1.07 1.749-2.881 2.859-3.095 11.366-2.193 15.156-8.539 11.128-19.471-5.747-15.592-11.704-31.104-17.419-46.709-.923-2.521-2.051-3.584-4.858-3.57-24.436.104-48.871.099-73.308.007-2.69-.011-4.041.797-5.033 3.39-5.991 15.661-12.255 31.22-18.264 46.876-4.104 10.695-.124 17.532 11.166 19.293 2.41.376 2.872 1.24 2.047 3.279H198.64zm94.26-177.618c-12.761 32.559-25.057 63.933-37.498 95.683h73.433L292.9 343.364zM126.212 520.982c.054-1.048.107-2.097.188-3.641 1.738 0 3.392.078 5.032-.013 8.958-.491 16.538-7.383 17.798-16.256.299-2.105.348-4.26.348-6.393.019-53.767.018-107.529.013-161.295-.002-14.828-6.097-21.555-20.702-23.06-1.02-.104-1.954-1.018-2.928-1.554l.499-1.136h66.195c.15.374.304.748.456 1.122-1.026.542-2.013 1.454-3.084 1.569-14.385 1.537-20.617 8.347-20.618 22.705-.001 54.07-.002 108.14.001 162.21.001 13.938 6.752 21.279 20.568 22.075 3.052.177 3.393 1.281 2.243 3.664-22.002.003-44.005.003-66.009.003zM-271.496 451.135c.208 2.525.594 5.052.593 7.577-.006 14.819-.179 29.64-.101 44.457.014 2.784-1.411 3.614-3.55 4.479-15.722 6.358-32.141 9.605-48.953 11.111-22.027 1.976-43.994 2.339-65.432-4.229-38.3-11.732-66.291-34.961-77.194-74.46-17.102-61.956 12.724-134.607 95.73-147.258 29.777-4.538 59.437-2.382 88.315 6.891 9.576 3.075 9.429 3.241 9.581 13.03.187 12.066.562 24.132.827 36.198.063 2.864.01 5.731-.616 8.628-.636-4.509-1.274-9.018-1.907-13.526-3.315-23.59-17.247-37.997-39.621-44.126-26.978-7.392-53.678-6.505-78.857 6.778-23.638 12.47-37.41 32.934-43.304 58.528-8.267 35.896-5.564 70.987 12.271 103.641 18.194 33.311 47.328 48.055 85.047 46.126 11.192-.572 22.152-2.364 32.58-6.734 17.769-7.449 28.461-20.53 31.556-39.625.928-5.723 1.624-11.482 2.426-17.227l.609-.259zM-14.586 307.367h4.497c24.905 0 49.812-.152 74.717.105 6.356.064 12.864.766 19.019 2.308 23.861 5.977 37.429 24.069 38.776 50.91 1.468 29.203-12.111 47.674-41.064 55.669-13.194 3.645-26.709 4.854-40.356 4.812-.681-.002-1.361-.235-2.093-1.384 2.409-.163 4.82-.303 7.229-.489 17.771-1.381 33.211-7.453 44.693-21.812 16.103-20.137 12.469-49.194 2.976-64.811-5.689-9.358-14.254-15.083-25.037-15.708-13.354-.773-26.792-.185-40.685-.185v5.036c0 57.299-.002 114.599.001 171.897.001 13.863 6.413 20.783 20.199 21.974.97.084 1.874.938 2.809 1.434-1.009.581-2.017 1.664-3.028 1.669-20.017.101-40.031.101-60.049-.003-.979-.005-1.951-1.131-2.928-1.734.945-.474 1.863-1.289 2.84-1.366 13.759-1.083 20.285-8.045 20.288-21.878.014-54.243.014-108.487-.001-162.73-.004-12.378-7.218-19.96-19.562-20.794-1.272-.086-2.509-.718-3.762-1.098.172-.607.346-1.214.521-1.822zM-230.55 356.402c.708-2.116.78-3.395 1.446-4.151 5.224-5.94 10.574-11.771 15.857-17.661 1.447-1.611 2.48-3.854 4.242-4.882 19.435-11.335 38.769-23.002 61.961-25.084 6.328-.567 12.645-1.351 18.985-1.646 1.783-.083 3.629 1.209 5.56 1.913l-11.104 104.356-.937.21c-.432-1.486-1.093-2.948-1.259-4.463-1.288-11.809-2.25-23.656-3.755-35.436-2.356-18.439-5.037-36.837-7.636-55.246-.427-3.032-5.336-4.995-9.839-3.079-13.448 5.719-27.307 10.749-38.919 20.036-21.38 17.1-32.574 40.049-36.955 66.464-2.053 12.378.205 24.833 1.777 37.252 2.075 16.375 9.519 30.527 18.297 43.721 5.179 7.784 12.46 14.634 21.418 19.063 6.23 3.082 12.053 6.988 17.974 10.477-25.66-2.675-61.594-27.075-72.418-72.532-8.234-34.58 3.884-72.451 15.305-79.312zm177.361 113.857c-1.953 2.06-3.369 4.629-5.329 6.68-7.919 8.287-15.659 17.043-26.37 21.688-11.488 4.983-22.071 12.977-36.163 11.829l-12.364-97.491-1.193.037c-.211.811-.526 1.607-.617 2.431-.759 6.827-1.331 13.681-2.243 20.486-1.188 8.859-2.975 17.649-3.888 26.533-1.209 11.768-1.896 23.594-2.659 35.404-.342 5.29-.195 10.608-.521 15.898-.2 3.249 1.239 4.505 4.233 4.393 6.156-.233 12.37-.063 18.455-.864 30.945-4.081 56.803-18.044 77.327-41.439 6.174-7.036 11.021-15.235 16.414-22.814l1.438 1.95c.473-3.949.259-7.496 1.37-10.563 6.554-18.089 6.938-36.46 3.012-55.054-6.476-30.668-22.466-54.369-50.953-68.731-1.951-.982-4.156-1.574-6.312-1.981-.899-.17-1.98.621-3.165 1.042 6.793 5.182 13.483 9.125 18.711 14.493 15.014 15.41 24.012 34.001 26.82 55.455.375 2.876 1.007 5.732 1.178 8.618.476 8.008 2.661 15.954.86 24.05-2.749 12.367-5.571 24.69-11.388 36.116-1.585 3.114-2.391 6.626-3.78 10.604-.471.182-2.042.356-2.873 1.23zM-93.677 313.229l11.429 3.205c-2.284 3.463-6.683 2.357-11.429-3.205z"/>
</symbol>
<symbol id="facebook-icon" viewBox="0 0 64 64">
  <title>
      Copia Facebook
  </title>
  <path d="M34.1,47V33.3h4.6l0.7-5.3h-5.3v-3.4c0-1.5,0.4-2.6,2.6-2.6l2.8,0v-4.8c-0.5-0.1-2.2-0.2-4.1-0.2 c-4.1,0-6.9,2.5-6.9,7V28H24v5.3h4.6V47H34.1z"></path>
</symbol>
<symbol id="facebook-mask" viewBox="0 0 64 64">
  <path d="M0,0v64h64V0H0z M39.6,22l-2.8,0c-2.2,0-2.6,1.1-2.6,2.6V28h5.3l-0.7,5.3h-4.6V47h-5.5V33.3H24V28h4.6V24 c0-4.6,2.8-7,6.9-7c2,0,3.6,0.1,4.1,0.2V22z"></path>
</symbol>
<symbol id="twitter-icon" viewBox="0 0 64 64">
  <path d="M48,22.1c-1.2,0.5-2.4,0.9-3.8,1c1.4-0.8,2.4-2.1,2.9-3.6c-1.3,0.8-2.7,1.3-4.2,1.6 C41.7,19.8,40,19,38.2,19c-3.6,0-6.6,2.9-6.6,6.6c0,0.5,0.1,1,0.2,1.5c-5.5-0.3-10.3-2.9-13.5-6.9c-0.6,1-0.9,2.1-0.9,3.3 c0,2.3,1.2,4.3,2.9,5.5c-1.1,0-2.1-0.3-3-0.8c0,0,0,0.1,0,0.1c0,3.2,2.3,5.8,5.3,6.4c-0.6,0.1-1.1,0.2-1.7,0.2c-0.4,0-0.8,0-1.2-0.1 c0.8,2.6,3.3,4.5,6.1,4.6c-2.2,1.8-5.1,2.8-8.2,2.8c-0.5,0-1.1,0-1.6-0.1c2.9,1.9,6.4,2.9,10.1,2.9c12.1,0,18.7-10,18.7-18.7 c0-0.3,0-0.6,0-0.8C46,24.5,47.1,23.4,48,22.1z"></path>
</symbol>
<symbol id="twitter-mask" viewBox="0 0 64 64">
  <path d="M0,0v64h64V0H0z M44.7,25.5c0,0.3,0,0.6,0,0.8C44.7,35,38.1,45,26.1,45c-3.7,0-7.2-1.1-10.1-2.9 c0.5,0.1,1,0.1,1.6,0.1c3.1,0,5.9-1,8.2-2.8c-2.9-0.1-5.3-2-6.1-4.6c0.4,0.1,0.8,0.1,1.2,0.1c0.6,0,1.2-0.1,1.7-0.2 c-3-0.6-5.3-3.3-5.3-6.4c0,0,0-0.1,0-0.1c0.9,0.5,1.9,0.8,3,0.8c-1.8-1.2-2.9-3.2-2.9-5.5c0-1.2,0.3-2.3,0.9-3.3 c3.2,4,8.1,6.6,13.5,6.9c-0.1-0.5-0.2-1-0.2-1.5c0-3.6,2.9-6.6,6.6-6.6c1.9,0,3.6,0.8,4.8,2.1c1.5-0.3,2.9-0.8,4.2-1.6 c-0.5,1.5-1.5,2.8-2.9,3.6c1.3-0.2,2.6-0.5,3.8-1C47.1,23.4,46,24.5,44.7,25.5z"></path>
</symbol>
<symbol id="youtube-icon" viewBox="0 0 64 64">
  <path d="M46.7,26c0,0-0.3-2.1-1.2-3c-1.1-1.2-2.4-1.2-3-1.3C38.3,21.4,32,21.4,32,21.4h0 c0,0-6.3,0-10.5,0.3c-0.6,0.1-1.9,0.1-3,1.3c-0.9,0.9-1.2,3-1.2,3S17,28.4,17,30.9v2.3c0,2.4,0.3,4.9,0.3,4.9s0.3,2.1,1.2,3 c1.1,1.2,2.6,1.2,3.3,1.3c2.4,0.2,10.2,0.3,10.2,0.3s6.3,0,10.5-0.3c0.6-0.1,1.9-0.1,3-1.3c0.9-0.9,1.2-3,1.2-3s0.3-2.4,0.3-4.9 v-2.3C47,28.4,46.7,26,46.7,26z M28.9,35.9l0-8.4l8.1,4.2L28.9,35.9z"></path>
</symbol>
<symbol id="youtube-mask" viewBox="0 0 64 64">
  <path d="M0,0v64h64V0H0z M47,33.1c0,2.4-0.3,4.9-0.3,4.9s-0.3,2.1-1.2,3c-1.1,1.2-2.4,1.2-3,1.3 C38.3,42.5,32,42.6,32,42.6s-7.8-0.1-10.2-0.3c-0.7-0.1-2.2-0.1-3.3-1.3c-0.9-0.9-1.2-3-1.2-3S17,35.6,17,33.1v-2.3 c0-2.4,0.3-4.9,0.3-4.9s0.3-2.1,1.2-3c1.1-1.2,2.4-1.2,3-1.3c4.2-0.3,10.5-0.3,10.5-0.3h0c0,0,6.3,0,10.5,0.3c0.6,0.1,1.9,0.1,3,1.3 c0.9,0.9,1.2,3,1.2,3s0.3,2.4,0.3,4.9V33.1z M28.9,35.9l8.1-4.2l-8.1-4.2L28.9,35.9z"></path>
</symbol>
<symbol id="instagram-icon" viewBox="0 0 64 64">
  <path d="M46.91,25.816c-0.073-1.597-0.326-2.687-0.697-3.641c-0.383-0.986-0.896-1.823-1.73-2.657c-0.834-0.834-1.67-1.347-2.657-1.73c-0.954-0.371-2.045-0.624-3.641-0.697C36.585,17.017,36.074,17,32,17s-4.585,0.017-6.184,0.09c-1.597,0.073-2.687,0.326-3.641,0.697c-0.986,0.383-1.823,0.896-2.657,1.73c-0.834,0.834-1.347,1.67-1.73,2.657c-0.371,0.954-0.624,2.045-0.697,3.641C17.017,27.415,17,27.926,17,32c0,4.074,0.017,4.585,0.09,6.184c0.073,1.597,0.326,2.687,0.697,3.641c0.383,0.986,0.896,1.823,1.73,2.657c0.834,0.834,1.67,1.347,2.657,1.73c0.954,0.371,2.045,0.624,3.641,0.697C27.415,46.983,27.926,47,32,47s4.585-0.017,6.184-0.09c1.597-0.073,2.687-0.326,3.641-0.697c0.986-0.383,1.823-0.896,2.657-1.73c0.834-0.834,1.347-1.67,1.73-2.657c0.371-0.954,0.624-2.045,0.697-3.641C46.983,36.585,47,36.074,47,32S46.983,27.415,46.91,25.816z M44.21,38.061c-0.067,1.462-0.311,2.257-0.516,2.785c-0.272,0.7-0.597,1.2-1.122,1.725c-0.525,0.525-1.025,0.85-1.725,1.122c-0.529,0.205-1.323,0.45-2.785,0.516c-1.581,0.072-2.056,0.087-6.061,0.087s-4.48-0.015-6.061-0.087c-1.462-0.067-2.257-0.311-2.785-0.516c-0.7-0.272-1.2-0.597-1.725-1.122c-0.525-0.525-0.85-1.025-1.122-1.725c-0.205-0.529-0.45-1.323-0.516-2.785c-0.072-1.582-0.087-2.056-0.087-6.061s0.015-4.48,0.087-6.061c0.067-1.462,0.311-2.257,0.516-2.785c0.272-0.7,0.597-1.2,1.122-1.725c0.525-0.525,1.025-0.85,1.725-1.122c0.529-0.205,1.323-0.45,2.785-0.516c1.582-0.072,2.056-0.087,6.061-0.087s4.48,0.015,6.061,0.087c1.462,0.067,2.257,0.311,2.785,0.516c0.7,0.272,1.2,0.597,1.725,1.122c0.525,0.525,0.85,1.025,1.122,1.725c0.205,0.529,0.45,1.323,0.516,2.785c0.072,1.582,0.087,2.056,0.087,6.061S44.282,36.48,44.21,38.061z M32,24.297c-4.254,0-7.703,3.449-7.703,7.703c0,4.254,3.449,7.703,7.703,7.703c4.254,0,7.703-3.449,7.703-7.703C39.703,27.746,36.254,24.297,32,24.297z M32,37c-2.761,0-5-2.239-5-5c0-2.761,2.239-5,5-5s5,2.239,5,5C37,34.761,34.761,37,32,37z M40.007,22.193c-0.994,0-1.8,0.806-1.8,1.8c0,0.994,0.806,1.8,1.8,1.8c0.994,0,1.8-0.806,1.8-1.8C41.807,22.999,41.001,22.193,40.007,22.193z">
  </path>
</symbol>
<symbol id="instagram-mask" viewBox="0 0 64 64">
  <path d="M43.693,23.153c-0.272-0.7-0.597-1.2-1.122-1.725c-0.525-0.525-1.025-0.85-1.725-1.122c-0.529-0.205-1.323-0.45-2.785-0.517c-1.582-0.072-2.056-0.087-6.061-0.087s-4.48,0.015-6.061,0.087c-1.462,0.067-2.257,0.311-2.785,0.517c-0.7,0.272-1.2,0.597-1.725,1.122c-0.525,0.525-0.85,1.025-1.122,1.725c-0.205,0.529-0.45,1.323-0.516,2.785c-0.072,1.582-0.087,2.056-0.087,6.061s0.015,4.48,0.087,6.061c0.067,1.462,0.311,2.257,0.516,2.785c0.272,0.7,0.597,1.2,1.122,1.725s1.025,0.85,1.725,1.122c0.529,0.205,1.323,0.45,2.785,0.516c1.581,0.072,2.056,0.087,6.061,0.087s4.48-0.015,6.061-0.087c1.462-0.067,2.257-0.311,2.785-0.516c0.7-0.272,1.2-0.597,1.725-1.122s0.85-1.025,1.122-1.725c0.205-0.529,0.45-1.323,0.516-2.785c0.072-1.582,0.087-2.056,0.087-6.061s-0.015-4.48-0.087-6.061C44.143,24.476,43.899,23.682,43.693,23.153z M32,39.703c-4.254,0-7.703-3.449-7.703-7.703s3.449-7.703,7.703-7.703s7.703,3.449,7.703,7.703S36.254,39.703,32,39.703z M40.007,25.793c-0.994,0-1.8-0.806-1.8-1.8c0-0.994,0.806-1.8,1.8-1.8c0.994,0,1.8,0.806,1.8,1.8C41.807,24.987,41.001,25.793,40.007,25.793z M0,0v64h64V0H0z M46.91,38.184c-0.073,1.597-0.326,2.687-0.697,3.641c-0.383,0.986-0.896,1.823-1.73,2.657c-0.834,0.834-1.67,1.347-2.657,1.73c-0.954,0.371-2.044,0.624-3.641,0.697C36.585,46.983,36.074,47,32,47s-4.585-0.017-6.184-0.09c-1.597-0.073-2.687-0.326-3.641-0.697c-0.986-0.383-1.823-0.896-2.657-1.73c-0.834-0.834-1.347-1.67-1.73-2.657c-0.371-0.954-0.624-2.044-0.697-3.641C17.017,36.585,17,36.074,17,32c0-4.074,0.017-4.585,0.09-6.185c0.073-1.597,0.326-2.687,0.697-3.641c0.383-0.986,0.896-1.823,1.73-2.657c0.834-0.834,1.67-1.347,2.657-1.73c0.954-0.371,2.045-0.624,3.641-0.697C27.415,17.017,27.926,17,32,17s4.585,0.017,6.184,0.09c1.597,0.073,2.687,0.326,3.641,0.697c0.986,0.383,1.823,0.896,2.657,1.73c0.834,0.834,1.347,1.67,1.73,2.657c0.371,0.954,0.624,2.044,0.697,3.641C46.983,27.415,47,27.926,47,32C47,36.074,46.983,36.585,46.91,38.184z M32,27c-2.761,0-5,2.239-5,5s2.239,5,5,5s5-2.239,5-5S34.761,27,32,27z">
  </path>
</symbol>
<symbol id="menu-icon" viewBox="0 0 20 20">
  <title>Menu</title>
  <path d="M0 3h20v2h-20v-2zM0 9h20v2h-20v-2zM0 15h20v2h-20v-2z"></path>
</symbol>
<symbol id="close-icon" viewBox="0 0 20 20">
<title>Close</title>
<path d="M10 8.586l-7.071-7.071-1.414 1.414 7.071 7.071-7.071 7.071 1.414 1.414 7.071-7.071 7.071 7.071 1.414-1.414-7.071-7.071 7.071-7.071-1.414-1.414-7.071 7.071z"></path>
</symbol>
</svg>
